mtllib tetra_sail.mtl
o tetra_sail
v -0.959473 -0.765136 8.092773
v -2.166504 2.278809 -0.000000
v -2.166504 -0.683105 0.000000
v -0.959473 -0.765136 8.092773
v 0.000000 -4.700195 8.092773
v -2.166504 -0.683105 0.000000
v 0.000000 -4.353027 0.000000
v 0.000000 -4.700195 8.092773
v -2.166504 2.278809 -0.000000
v 0.000000 5.252930 -0.000000
v 0.000000 5.600097 -8.092773
v -2.166504 2.278809 -0.000000
v -0.959473 2.411132 -8.092773
v -2.166504 -0.683105 0.000000
v -0.959473 -0.765137 -8.092773
v 0.000000 -4.700196 -8.092773
v -2.166504 2.278809 -0.000000
v -0.959473 -0.765136 8.092773
v -0.959473 2.411134 8.092773
v -2.166504 2.278809 -0.000000
v 0.000000 5.600098 8.092773
v 0.000000 5.252930 -0.000000
v -2.166504 2.278809 -0.000000
v -0.959473 -0.765137 -8.092773
v 0.000000 -4.700196 -8.092773
v -2.166504 -0.683105 0.000000
v 0.000000 -4.353027 0.000000
v 0.000000 -4.700196 -8.092773
v -0.959473 -0.765137 -8.092773
v -2.166504 -0.683105 0.000000
v -0.959473 2.411132 -8.092773
v -2.166504 2.278809 -0.000000
v 0.000000 5.600098 8.092773
v -2.166504 2.278809 -0.000000
v -0.959473 2.411134 8.092773
v -0.959473 2.411132 -8.092773
v -2.166504 2.278809 -0.000000
v 0.000000 5.600097 -8.092773
vt 0.000000 0.381348
vt 0.500000 0.690918
vt 0.500000 0.381348
vt 0.000000 0.381348
vt 0.000000 0.000000
vt 0.500000 0.381348
vt 0.500000 0.000000
vt 0.000000 0.000000
vt 0.500000 0.690918
vt 0.500000 1.000000
vt 1.000000 1.000000
vt 0.500000 0.690918
vt 1.000000 0.690918
vt 0.500000 0.381348
vt 1.000000 0.381348
vt 1.000000 0.000000
vt 0.500000 0.690918
vt 0.000000 0.381348
vt 0.000000 0.690918
vt 0.500000 0.690918
vt 0.000000 1.000000
vt 0.500000 1.000000
vt 0.500000 0.690918
vt 1.000000 0.381348
vt 1.000000 0.000000
vt 0.500000 0.381348
vt 0.500000 0.000000
vt 1.000000 0.000000
vt 1.000000 0.381348
vt 0.500000 0.381348
vt 1.000000 0.690918
vt 0.500000 0.690918
vt 0.000000 1.000000
vt 0.500000 0.690918
vt 0.000000 0.690918
vt 1.000000 0.690918
vt 0.500000 0.690918
vt 1.000000 1.000000
vn -0.9891 0.0000 0.1475
vn 0.9891 -0.0000 -0.1475
vn 0.9618 0.2345 -0.1411
vn -0.9618 -0.2345 0.1411
vn -0.8609 -0.5082 -0.0218
vn 0.8609 0.5082 0.0218
vn -0.8080 0.5886 0.0253
vn 0.8080 -0.5886 -0.0253
vn 0.9486 -0.2854 0.1368
vn 0.9891 0.0000 0.1475
vn 0.9618 0.2345 0.1411
vn 0.9486 -0.2854 -0.1368
vn 0.8080 -0.5886 0.0253
vn -0.8080 0.5886 -0.0253
vn -0.9618 -0.2345 -0.1411
vn -0.8609 -0.5082 0.0218
vn 0.8609 0.5082 -0.0218
vn -0.9891 0.0000 -0.1475
vn -0.9486 0.2854 0.1368
vn -0.9486 0.2854 -0.1368
usemtl tetra_sail0
s off
f 1/1/1 2/2/1 3/3/1
f 2/2/2 4/4/2 3/3/2
f 3/3/3 4/4/3 5/5/3
f 4/4/4 6/6/4 5/5/4
f 5/5/5 6/6/5 7/7/5
f 6/6/6 8/8/6 7/7/6
f 9/9/7 10/10/7 11/11/7
f 10/10/8 12/12/8 11/11/8
f 11/11/9 12/12/9 13/13/9
f 12/12/10 14/14/10 13/13/10
f 13/13/10 14/14/10 15/15/10
f 14/14/11 16/16/11 15/15/11
f 17/17/1 18/18/1 19/19/1
f 18/18/2 20/20/2 19/19/2
f 19/19/12 20/20/12 21/21/12
f 20/20/13 22/22/13 21/21/13
f 21/21/14 22/22/14 23/23/14
f 24/24/15 25/25/15 26/26/15
f 25/25/16 27/27/16 26/26/16
f 26/26/17 27/27/17 28/28/17
f 29/29/18 30/30/18 31/31/18
f 30/30/18 32/32/18 31/31/18
f 33/33/19 34/34/19 35/35/19
f 36/36/20 37/37/20 38/38/20
